<svg xmlns="http://www.w3.org/2000/svg" viewBox="0 0 283.463 50.139">
  <defs>
    <style>
      .cls-1{fill:#1d1d1b}.cls-2{fill:#009fe3}
    </style>
  </defs>
  <path d="M119.8 12.927V.532a.574.574 0 0 1 1.148 0v19.74c0 4.973-3.1 7.421-7.383 7.421-4.9 0-7.842-2.944-7.842-9.22s2.945-9.18 7.842-9.18a6.641 6.641 0 0 1 6.235 3.634zm-6.235-2.639c-4.323 0-6.618 2.524-6.618 8.185 0 5.739 2.3 8.226 6.618 8.226 3.6 0 6.235-1.95 6.235-6.427v-5.508a6.766 6.766 0 0 0-6.239-4.476z" class="cls-1"/>
  <path d="M126.914 13.08a.544.544 0 0 1-.459.268.523.523 0 0 1-.536-.536.613.613 0 0 1 .115-.344 6.831 6.831 0 0 1 6.12-3.175c4.706 0 6.695 2.525 6.695 6.312v11.323a.536.536 0 1 1-1.071 0V24.67a7.242 7.242 0 0 1-6.312 2.986c-4.285 0-6.656-1.914-6.656-5.279s2.716-5.319 7.077-5.319h5.891V15.3c0-3.251-2.1-5.011-5.624-5.011a5.483 5.483 0 0 0-5.24 2.791zm10.864 8.187v-3.252h-5.891c-3.444 0-5.892 1.415-5.892 4.362 0 2.638 1.76 4.283 5.471 4.283 3.327 0 6.312-1.798 6.312-5.393z" class="cls-1"/>
  <path d="M144.78 5.162a.574.574 0 0 1 1.148 0v4.667h3.443a.5.5 0 1 1 0 .994h-3.443v12.165c0 2.3 1.3 3.519 3.175 3.519a.5.5 0 1 1 0 .995c-2.793 0-4.323-1.913-4.323-4.514V10.823h-2.372a.5.5 0 1 1 0-.994h2.372z" class="cls-1"/>
  <path d="M154.766 13.08a.544.544 0 0 1-.459.268.523.523 0 0 1-.536-.536.613.613 0 0 1 .115-.344 6.831 6.831 0 0 1 6.121-3.175c4.7 0 6.694 2.525 6.694 6.312v11.323a.536.536 0 1 1-1.071 0V24.67a7.242 7.242 0 0 1-6.312 2.986c-4.285 0-6.656-1.914-6.656-5.279s2.716-5.319 7.077-5.319h5.891V15.3c0-3.251-2.1-5.011-5.623-5.011a5.484 5.484 0 0 0-5.241 2.791zm10.864 8.187v-3.252h-5.891c-3.444 0-5.892 1.415-5.892 4.362 0 2.638 1.76 4.283 5.471 4.283 3.328 0 6.312-1.798 6.312-5.393z" class="cls-1"/>
  <path d="M174.812 14.342c0 2.831 9.411 1.531 9.411 7.843 0 3.6-3.06 5.432-7 5.432a9.118 9.118 0 0 1-6.771-2.678 1.776 1.776 0 0 1-.46-1.187 1.863 1.863 0 0 1 1.837-1.836 1.794 1.794 0 0 1 1.185.461 6.3 6.3 0 0 0 4.209 1.567c1.721 0 2.83-.458 2.83-1.53 0-3.1-9.372-1.492-9.372-8 0-3.442 2.869-5.126 6.388-5.126 2.717 0 5.126 1.032 6.2 2.372a1.651 1.651 0 0 1 .382 1.147 1.862 1.862 0 0 1-1.836 1.837 2.081 2.081 0 0 1-1.3-.536 5.534 5.534 0 0 0-3.443-1.224c-1.418.005-2.26.502-2.26 1.458z" class="cls-1"/>
  <path d="M190.192 14.419A1.827 1.827 0 0 1 187.247 13a1.894 1.894 0 0 1 .5-1.262 8.027 8.027 0 0 1 6.274-2.448c4.743 0 7.574 2.334 7.574 6.389v9.793a2.028 2.028 0 0 1-4.055 0c-1.033 1.645-2.716 2.218-5.011 2.218-3.75 0-6.236-2.334-6.236-5.777 0-3.557 2.869-5.393 6.2-5.393h5.01v-.689c0-1.721-1.262-2.868-3.48-2.868a6.318 6.318 0 0 0-3.831 1.456zm7.306 6.389v-1.071h-4.475c-1.683 0-2.6.8-2.6 2.179 0 1.454 1.034 2.335 3.176 2.335 2.025 0 3.901-1.301 3.901-3.443z" class="cls-1"/>
  <path d="M214.064 9.293c5.011 0 7.766 2.946 7.766 9.18s-2.793 9.22-7.766 9.22a6.067 6.067 0 0 1-4.514-1.645v6.77a2.066 2.066 0 1 1-4.131 0v-21.23a2.066 2.066 0 0 1 4.131 0 5.662 5.662 0 0 1 4.514-2.295zm-.535 3.519c-2.678 0-4.094 1.913-4.094 5.7 0 3.749 1.416 5.662 4.094 5.662s4.092-1.913 4.092-5.662c0-3.787-1.415-5.7-4.092-5.7z" class="cls-1"/>
  <path d="M224.7 5.047a2.468 2.468 0 1 1 4.934 0 2.468 2.468 0 0 1-4.934 0zm4.513 20.389a2.066 2.066 0 1 1-4.131 0V11.588a2.066 2.066 0 0 1 4.131 0z" class="cls-1"/>
  <path d="M240.539 9.293c6.465 0 7.65 4.973 7.65 7.613 0 1.415 0 3.06-2.334 3.06h-9.447c0 2.754 1.951 4.017 4.475 4.017a6.546 6.546 0 0 0 3.787-1.183 2.059 2.059 0 0 1 1.224-.42 1.8 1.8 0 0 1 1.8 1.8 1.909 1.909 0 0 1-.65 1.415 9 9 0 0 1-6.159 2.1c-5.318 0-8.608-2.869-8.608-9.257-.002-5.855 3.058-9.145 8.262-9.145zm-4.017 7.23h7.578a3.423 3.423 0 0 0-3.557-3.711 3.735 3.735 0 0 0-4.021 3.711z" class="cls-1"/>
  <path d="M266.514 15.949v9.564a1.994 1.994 0 0 1-2.065 1.989 1.95 1.95 0 0 1-2.066-1.989v-8.8c0-2.18-.88-3.672-3.366-3.672-2.869 0-3.825 1.683-3.825 3.94v8.531a2.067 2.067 0 0 1-4.132 0V11.588a2.066 2.066 0 0 1 4.132 0 5.667 5.667 0 0 1 4.9-2.295c5.198 0 6.422 3.328 6.422 6.656z" class="cls-1"/>
  <path d="M274.053 14.342c0 2.831 9.41 1.531 9.41 7.843 0 3.6-3.06 5.432-7 5.432a9.12 9.12 0 0 1-6.771-2.678 1.785 1.785 0 0 1-.459-1.187 1.863 1.863 0 0 1 1.836-1.836 1.8 1.8 0 0 1 1.186.461 6.3 6.3 0 0 0 4.208 1.567c1.721 0 2.83-.458 2.83-1.53 0-3.1-9.371-1.492-9.371-8 0-3.442 2.868-5.126 6.388-5.126 2.716 0 5.125 1.032 6.2 2.372a1.646 1.646 0 0 1 .383 1.147 1.862 1.862 0 0 1-1.836 1.837 2.078 2.078 0 0 1-1.3-.536 5.539 5.539 0 0 0-3.443-1.224c-1.42.005-2.261.502-2.261 1.458z" class="cls-1"/>
  <g>
    <path d="M111.606 44.056l-1.62 5.722a.372.372 0 0 1-.371.293.385.385 0 0 1-.371-.281l-1.99-6.949a.578.578 0 0 1-.023-.135.379.379 0 0 1 .383-.383.385.385 0 0 1 .371.282l1.641 5.814 1.609-5.814a.385.385 0 0 1 .742 0l1.608 5.814 1.642-5.814a.384.384 0 0 1 .371-.282.379.379 0 0 1 .382.383.576.576 0 0 1-.022.135l-1.991 6.949a.384.384 0 0 1-.371.281.372.372 0 0 1-.371-.293z" class="cls-2"/>
    <path d="M121.015 49.688a.383.383 0 1 1-.765 0v-6.982a.383.383 0 1 1 .765 0z" class="cls-2"/>
    <path d="M128.221 42.952c-1.181 0-1.631.586-1.631 1.227 0 1.867 4.251 1.068 4.251 3.778 0 1.405-.967 2.182-2.7 2.182a2.912 2.912 0 0 1-2.621-1.383.4.4 0 0 1-.056-.2.356.356 0 0 1 .36-.361.36.36 0 0 1 .315.181 2.249 2.249 0 0 0 2 1.068c1.236 0 1.934-.5 1.934-1.485 0-2.1-4.251-1.113-4.251-3.778 0-1.035.753-1.923 2.4-1.923a2.81 2.81 0 0 1 2.406 1.158.365.365 0 0 1 .068.214.362.362 0 0 1-.652.213 2.226 2.226 0 0 0-1.823-.891z" class="cls-2"/>
    <path d="M137.35 42.413c2.148 0 3.475 1.012 3.475 3.789s-1.327 3.78-3.475 3.78h-1.586a.379.379 0 0 1-.382-.383V42.8a.378.378 0 0 1 .382-.383zm-1.2 6.871h1.2c1.675 0 2.7-.742 2.7-3.082 0-2.316-1.023-3.092-2.7-3.092h-1.2z" class="cls-2"/>
    <path d="M144.959 46.2c0-2.664 1.327-3.946 3.509-3.946s3.509 1.282 3.509 3.946c0 2.644-1.328 3.937-3.509 3.937s-3.509-1.291-3.509-3.937zm.788 0c0 2.193 1 3.24 2.721 3.24s2.721-1.047 2.721-3.24-1-3.25-2.721-3.25-2.721 1.05-2.721 3.25z" class="cls-2"/>
    <path d="M159.5 48.542l-2.351-4.375V49.7a.371.371 0 1 1-.742 0v-7.006a.372.372 0 0 1 .708-.158l2.722 5.095 2.732-5.095a.372.372 0 0 1 .709.158V49.7a.371.371 0 1 1-.742 0v-5.533l-2.362 4.375a.372.372 0 0 1-.674 0z" class="cls-2"/>
    <path d="M173.772 43.133a.36.36 0 0 1 0-.72h4.78a.36.36 0 1 1 0 .72h-2v6.555a.383.383 0 1 1-.765 0v-6.555z" class="cls-2"/>
    <path d="M184 46.45v3.238a.383.383 0 1 1-.765 0v-6.982a.383.383 0 1 1 .765 0v3.047h3.914v-3.047a.383.383 0 1 1 .765 0v6.982a.383.383 0 1 1-.765 0V46.45z" class="cls-2"/>
    <path d="M194.391 49.688a.383.383 0 1 1-.765 0V42.8a.378.378 0 0 1 .382-.383h2.238a2.1 2.1 0 0 1 2.148 2.149 2.068 2.068 0 0 1-2.013 2.147l2.058 2.744a.373.373 0 0 1 .079.235.384.384 0 0 1-.709.2l-2.283-3.183h-1.135zm0-3.676h1.877a1.454 1.454 0 0 0-.033-2.9h-1.844z" class="cls-2"/>
    <path d="M202.507 46.2c0-2.664 1.327-3.946 3.508-3.946s3.51 1.282 3.51 3.946c0 2.644-1.328 3.937-3.51 3.937s-3.508-1.291-3.508-3.937zm.787 0c0 2.193 1 3.24 2.721 3.24s2.723-1.047 2.723-3.24-1-3.25-2.723-3.25-2.721 1.05-2.721 3.25z" class="cls-2"/>
    <path d="M214.064 47.677v-4.971a.383.383 0 1 1 .765 0v4.971c0 .887.326 1.742 1.877 1.742s1.868-.855 1.868-1.742v-4.971a.382.382 0 1 1 .763 0v4.971c0 1.236-.506 2.462-2.631 2.462s-2.642-1.226-2.642-2.462z" class="cls-2"/>
    <path d="M229.421 48.542v-1.631h-1.877a.349.349 0 1 1 0-.7h2.272a.358.358 0 0 1 .348.349v1.97a.556.556 0 0 1-.146.371 3.314 3.314 0 0 1-2.688 1.238c-2.182 0-3.508-1.169-3.508-3.937 0-2.664 1.326-3.946 3.508-3.946a3.091 3.091 0 0 1 2.531 1.192.4.4 0 0 1 .078.237.362.362 0 0 1-.652.213 2.429 2.429 0 0 0-1.957-.946c-1.732 0-2.721 1.047-2.721 3.25 0 2.34.989 3.24 2.721 3.24a2.585 2.585 0 0 0 2.091-.9z" class="cls-2"/>
    <path d="M235.593 46.45v3.238a.383.383 0 1 1-.765 0v-6.982a.383.383 0 1 1 .765 0v3.047h3.912v-3.047a.383.383 0 0 1 .766 0v6.982a.383.383 0 0 1-.766 0V46.45z" class="cls-2"/>
    <path d="M253.007 42.413c2.148 0 3.475 1.012 3.475 3.789s-1.327 3.78-3.475 3.78h-1.586a.379.379 0 0 1-.382-.383V42.8a.378.378 0 0 1 .382-.383zm-1.2 6.871h1.2c1.676 0 2.7-.742 2.7-3.082 0-2.316-1.023-3.092-2.7-3.092h-1.2z" class="cls-2"/>
    <path d="M261.775 47.743l-.82 2.059a.393.393 0 0 1-.372.269.385.385 0 0 1-.382-.383.46.46 0 0 1 .033-.168l2.744-6.939a.372.372 0 0 1 .36-.258.4.4 0 0 1 .371.258l2.744 6.939a.546.546 0 0 1 .034.168.395.395 0 0 1-.765.125l-.809-2.07zm1.563-4.138l-1.327 3.441h2.665z" class="cls-2"/>
    <path d="M269.442 43.133a.36.36 0 1 1 0-.72h4.779a.36.36 0 1 1 0 .72h-2v6.555a.382.382 0 1 1-.764 0v-6.555z" class="cls-2"/>
    <path d="M278.761 47.743l-.82 2.059a.392.392 0 0 1-.371.269.386.386 0 0 1-.383-.383.462.462 0 0 1 .034-.168l2.744-6.939a.371.371 0 0 1 .361-.258.4.4 0 0 1 .371.258l2.743 6.939a.577.577 0 0 1 .034.168.4.4 0 0 1-.766.125l-.808-2.07zm1.565-4.138L279 47.046h2.666z" class="cls-2"/>
  </g>
  <path d="M72.911 12.2c0 .012-.009.029-.009.041a21.376 21.376 0 0 0-3.272-.279c-.3 0-.587.011-.882.023l-.116.006a2.673 2.673 0 0 0-2.1 1.273 2.632 2.632 0 0 0 .271 2.684 8.024 8.024 0 0 0 1.553 1.388c2.4 1.873 6.429 5.008 7.079 12.049a1.424 1.424 0 0 1-1.282 1.55h-.134a1.419 1.419 0 0 1-1.412-1.288c-.538-5.82-3.691-8.28-6-10.075a8.567 8.567 0 0 1-2.267-2.205 6.222 6.222 0 0 1-.9-3.268c-.906-.757-3.6-2.518-8.7-2.167a1.421 1.421 0 0 1-.2-2.835 15.592 15.592 0 0 1 9.88 2.212 5.659 5.659 0 0 1 2.334-1.766A16.229 16.229 0 0 0 40.7 4.558a16.415 16.415 0 0 1 4.539 7.59 1.42 1.42 0 0 1-.973 1.758 1.357 1.357 0 0 1-.393.055 1.424 1.424 0 0 1-1.373-1.028 12.767 12.767 0 0 0-4.558-6.969l-.126-.08a16.245 16.245 0 0 0-25.136 13.6c0 .134.006.265.01.4v.095a14.35 14.35 0 0 0 1.379 4.8 1.415 1.415 0 0 1-.646 1.9 1.4 1.4 0 0 1-.627.146 1.414 1.414 0 0 1-1.273-.794 17.52 17.52 0 0 1-1.422-4.2 14.5 14.5 0 0 0 3.869 28.311h5.487c-.859-5.2.17-9.17 2.516-12.133 2.439-3.082 6.183-4.923 11.148-5.5 2.53-1.465 4.292-5.123 3.959-7.1a1.42 1.42 0 0 1 2.8-.475c.338 2.033-.556 4.95-2.314 7.28 7.154-.614 12.034-3.62 14.18-8.782a8.736 8.736 0 0 1-2.621-3.7 1.42 1.42 0 0 1 2.688-.914c.08.23 1.9 5.107 8.7 3.928a1.42 1.42 0 0 1 .49 2.8 14.648 14.648 0 0 1-2.51.223 10.857 10.857 0 0 1-4.3-.835c-2.876 6.437-9.207 9.973-18.353 10.22-5.411.147-9.32 1.7-11.631 4.617-1.927 2.434-2.776 5.851-1.89 10.371h7.852a1.735 1.735 0 0 1 .139-.258c1.692-2.426 4.849-4.175 9.393-5.2 8.849-1.989 11.129-7.047 11.495-8.04a1.42 1.42 0 1 1 2.665.98c-.935 2.534-3.339 5.5-7.486 7.661.026.024-2.684 1.219-2.7 1.192a26.847 26.847 0 0 1-3.344.978 15.773 15.773 0 0 0-6.38 2.684h39.47a18.635 18.635 0 0 0 8.8-2.2 10.83 10.83 0 0 0-3.578-3.5 15.342 15.342 0 0 0-9.711-1.948 10.065 10.065 0 0 1-.5 2.758 1.423 1.423 0 0 1-1.354.987 1.508 1.508 0 0 1-.433-.071 1.413 1.413 0 0 1-.916-1.787c1.48-4.6-2.006-6.3-2.043-6.314a1.4 1.4 0 0 1-.778-1.839 1.433 1.433 0 0 1 1.863-.784 7.51 7.51 0 0 1 3.737 4.242A18.128 18.128 0 0 1 80.11 42c.188.119.371.236.549.355 3.446-5.511.776-12.537.749-12.609a1.42 1.42 0 0 1 2.641-1.043c.143.365 3.34 8.7-1.187 15.476A13.083 13.083 0 0 1 84.6 46.4a18.744 18.744 0 0 0 7.591-15.044c.003-10.848-9.791-17.819-19.28-19.156zM34.7 15.1a9.173 9.173 0 0 1-5.259 1.585 8.25 8.25 0 0 1-.56-.021c-.721 11.443-8.9 17.831-13.765 19.006a4.853 4.853 0 0 0-.455 2.7c.119 2.854-1.361 4.963-3.862 5.5a1.229 1.229 0 0 1-.3.035 1.42 1.42 0 0 1-.3-2.809c1.418-.3 1.663-1.588 1.62-2.611a9.684 9.684 0 0 1 .2-2.577 9.54 9.54 0 0 1-5.483-2.136 1.42 1.42 0 0 1 1.913-2.1 7 7 0 0 0 5.665 1.3 14.011 14.011 0 0 0 7.429-4.946 19.565 19.565 0 0 0 4.521-11.979 11.641 11.641 0 0 1-4.392-3.111 1.42 1.42 0 0 1 2.094-1.918c4.568 4.98 9.13 1.877 9.174 1.844a1.413 1.413 0 0 1 1.989.229A1.43 1.43 0 0 1 34.7 15.1z" class="cls-2"/>
</svg>
